<svg width="50" height="50" viewBox="0 0 50 50" fill="none" xmlns="http://www.w3.org/2000/svg">
<path d="M1.78567 26.5625C1.6278 26.5625 1.4764 26.6448 1.36477 26.7913C1.25314 26.9378 1.19043 27.1365 1.19043 27.3438V46.0938C1.19043 47.3859 1.99162 48.4375 2.97614 48.4375H14.8809C15.0388 48.4375 15.1902 48.3552 15.3018 48.2087C15.4134 48.0622 15.4761 47.8634 15.4761 47.6562C15.4761 47.4491 15.4134 47.2503 15.3018 47.1038C15.1902 46.9573 15.0388 46.875 14.8809 46.875H2.97614C2.81828 46.875 2.66688 46.7927 2.55525 46.6462C2.44362 46.4997 2.38091 46.3009 2.38091 46.0938V27.3438C2.38091 27.1365 2.31819 26.9378 2.20656 26.7913C2.09494 26.6448 1.94353 26.5625 1.78567 26.5625ZM48.2142 26.5625C48.0564 26.5625 47.905 26.6448 47.7933 26.7913C47.6817 26.9378 47.619 27.1365 47.619 27.3438V46.0938C47.619 46.3009 47.5563 46.4997 47.4447 46.6462C47.333 46.7927 47.1816 46.875 47.0238 46.875H22.0238C21.8659 46.875 21.7145 46.9573 21.6029 47.1038C21.4912 47.2503 21.4285 47.4491 21.4285 47.6562C21.4285 47.8634 21.4912 48.0622 21.6029 48.2087C21.7145 48.3552 21.8659 48.4375 22.0238 48.4375H47.0238C48.0083 48.4375 48.8095 47.3859 48.8095 46.0938V27.3438C48.8095 27.1365 48.7468 26.9378 48.6351 26.7913C48.5235 26.6448 48.3721 26.5625 48.2142 26.5625ZM21.4285 2.34375C21.4285 2.55095 21.4912 2.74966 21.6029 2.89618C21.7145 3.04269 21.8659 3.125 22.0238 3.125H47.0238C47.1816 3.125 47.333 3.20731 47.4447 3.35382C47.5563 3.50034 47.619 3.69905 47.619 3.90625V17.9031C47.619 18.1103 47.6817 18.309 47.7933 18.4556C47.905 18.6021 48.0564 18.6844 48.2142 18.6844C48.3721 18.6844 48.5235 18.6021 48.6351 18.4556C48.7468 18.309 48.8095 18.1103 48.8095 17.9031V3.90625C48.8095 2.61406 48.0083 1.5625 47.0238 1.5625H22.0238C21.8659 1.5625 21.7145 1.64481 21.6029 1.79132C21.4912 1.93784 21.4285 2.13655 21.4285 2.34375ZM2.97614 1.5625C1.99162 1.5625 1.19043 2.61406 1.19043 3.90625V17.9031C1.19043 18.1103 1.25314 18.309 1.36477 18.4556C1.4764 18.6021 1.6278 18.6844 1.78567 18.6844C1.94353 18.6844 2.09494 18.6021 2.20656 18.4556C2.31819 18.309 2.38091 18.1103 2.38091 17.9031V3.90625C2.38091 3.69905 2.44362 3.50034 2.55525 3.35382C2.66688 3.20731 2.81828 3.125 2.97614 3.125H14.8809C15.0388 3.125 15.1902 3.04269 15.3018 2.89618C15.4134 2.74966 15.4761 2.55095 15.4761 2.34375C15.4761 2.13655 15.4134 1.93784 15.3018 1.79132C15.1902 1.64481 15.0388 1.5625 14.8809 1.5625H2.97614Z" fill="#D27C2C"/>
<path d="M49.4048 21.8094H25.119C25.5917 21.5344 26 21.2141 26.2905 20.8328C27.1544 19.6965 27.6396 18.1568 27.6396 16.5516C27.6396 14.9463 27.1544 13.4066 26.2905 12.2703C24.5476 9.98281 21.5095 9.98281 19.7667 12.2703C19.4869 12.6375 19.2524 13.15 19.0476 13.7391V0.78125C19.0476 0.57405 18.9849 0.375336 18.8733 0.228823C18.7617 0.08231 18.6102 0 18.4524 0C18.2945 0 18.1431 0.08231 18.0315 0.228823C17.9199 0.375336 17.8571 0.57405 17.8571 0.78125V21.4453C15.8298 20.3484 12.2607 18.0953 11.5286 16.1531C11.2932 15.5334 11.1538 14.8586 11.1185 14.1677C11.0831 13.4768 11.1525 12.7836 11.3226 12.1281C11.4902 11.4718 11.7553 10.8656 12.1024 10.3445C12.4496 9.82339 12.872 9.39776 13.3452 9.09219C13.4868 9.0004 13.5949 8.83854 13.6455 8.64221C13.6962 8.44588 13.6854 8.23117 13.6155 8.04531C13.5455 7.85945 13.4222 7.71767 13.2726 7.65115C13.1231 7.58464 12.9595 7.59883 12.8179 7.69062C12.204 8.08662 11.6561 8.63855 11.2059 9.31444C10.7557 9.99033 10.4122 10.7767 10.1952 11.6281C9.9746 12.4777 9.88456 13.3762 9.93033 14.2718C9.9761 15.1673 10.1568 16.0421 10.4619 16.8453C11.1821 18.7547 13.5929 20.5813 15.5512 21.8094H0.595238C0.437371 21.8094 0.28597 21.8917 0.174341 22.0382C0.0627124 22.1847 0 22.3834 0 22.5906C0 22.7978 0.0627124 22.9965 0.174341 23.1431C0.28597 23.2896 0.437371 23.3719 0.595238 23.3719H11.7214C11.2607 23.6438 10.8619 23.9578 10.5774 24.3312C9.71345 25.4675 9.22825 27.0072 9.22825 28.6125C9.22825 30.2178 9.71345 31.7575 10.5774 32.8937C11.4488 34.0375 12.6071 34.6672 13.8393 34.6672C15.0714 34.6672 16.2298 34.0375 17.1012 32.8937C17.3964 32.5062 17.644 31.9578 17.8571 31.3234V49.2188C17.8571 49.4259 17.9199 49.6247 18.0315 49.7712C18.1431 49.9177 18.2945 50 18.4524 50C18.6102 50 18.7617 49.9177 18.8733 49.7712C18.9849 49.6247 19.0476 49.4259 19.0476 49.2188V23.7422C21.081 24.8453 24.6107 27.0828 25.3393 29.0141C25.8155 30.2766 25.8881 31.7047 25.5452 33.0391C25.3776 33.6954 25.1126 34.3016 24.7654 34.8227C24.4183 35.3438 23.9958 35.7694 23.5226 36.075C23.4501 36.1185 23.385 36.1806 23.3312 36.2577C23.2773 36.3348 23.2358 36.4254 23.2091 36.5239C23.1824 36.6225 23.1711 36.7271 23.1758 36.8315C23.1805 36.9359 23.2011 37.0381 23.2364 37.1318C23.2717 37.2256 23.321 37.3091 23.3814 37.3774C23.4418 37.4457 23.512 37.4974 23.5879 37.5294C23.6638 37.5614 23.7438 37.5731 23.8231 37.5637C23.9025 37.5544 23.9797 37.5242 24.05 37.475C24.6639 37.079 25.2118 36.5271 25.6619 35.8512C26.1121 35.1753 26.4556 34.3889 26.6726 33.5375C26.8933 32.6879 26.9833 31.7894 26.9375 30.8938C26.8918 29.9983 26.7111 29.1236 26.406 28.3203C25.6893 26.4203 23.2976 24.6016 21.344 23.3719H49.4048C49.5626 23.3719 49.714 23.2896 49.8257 23.1431C49.9373 22.9965 50 22.7978 50 22.5906C50 22.3834 49.9373 22.1847 49.8257 22.0382C49.714 21.8917 49.5626 21.8094 49.4048 21.8094ZM20.6083 13.3766C21.2548 12.5281 22.1143 12.0609 23.0286 12.0609C23.9429 12.0609 24.8024 12.5281 25.4488 13.3766C26.0899 14.2196 26.4499 15.3621 26.4499 16.5531C26.4499 17.7442 26.0899 18.8866 25.4488 19.7297C24.4321 21.0641 20.9369 21.6078 19.0595 21.7609C19.1929 18.8484 19.681 14.5938 20.6083 13.3766ZM16.2595 31.7891C14.9667 33.4859 12.7119 33.4859 11.419 31.7891C10.778 30.946 10.418 29.8036 10.418 28.6125C10.418 27.4214 10.778 26.279 11.419 25.4359C12.4357 24.1016 15.931 23.5578 17.8083 23.4047C17.675 26.3172 17.1869 30.5719 16.2595 31.7891Z" fill="#D27C2C"/>
</svg>
